<svg xmlns="http://www.w3.org/2000/svg" viewBox="0 0 640 520" role="img"><title>A ridge blocks sunlight from the solar panel.</title><rect x="0" y="0" width="640" height="520" rx="0" fill="#182b4b"/><path d="M61 73 h8 M65 69 v8" fill="none" stroke="#e7d8ba" stroke-width="2" stroke-linecap="round" stroke-linejoin="round"/><path d="M121 198 h8 M125 194 v8" fill="none" stroke="#e7d8ba" stroke-width="2" stroke-linecap="round" stroke-linejoin="round"/><path d="M259 69 h8 M263 65 v8" fill="none" stroke="#e7d8ba" stroke-width="2" stroke-linecap="round" stroke-linejoin="round"/><path d="M379 133 h8 M383 129 v8" fill="none" stroke="#e7d8ba" stroke-width="2" stroke-linecap="round" stroke-linejoin="round"/><path d="M586 193 h8 M590 189 v8" fill="none" stroke="#e7d8ba" stroke-width="2" stroke-linecap="round" stroke-linejoin="round"/><path d="M474 54 h8 M478 50 v8" fill="none" stroke="#e7d8ba" stroke-width="2" stroke-linecap="round" stroke-linejoin="round"/><path d="M328 225 h8 M332 221 v8" fill="none" stroke="#e7d8ba" stroke-width="2" stroke-linecap="round" stroke-linejoin="round"/><circle cx="515" cy="104" r="46" fill="#c6d4df"/><ellipse cx="502" cy="94" rx="12" ry="8" fill="#9babbd"/><path d="M0 357 Q270 283 640 358 V520 H0 Z" fill="#acb8c7" stroke="none" stroke-width="3" stroke-linecap="round" stroke-linejoin="round"/><ellipse cx="484" cy="454" rx="88" ry="21" fill="#8292a9"/><ellipse cx="90" cy="417" rx="59" ry="17" fill="#8b9bb0"/><path d="M357 396 L514 228 L641 355 V482 Z" fill="#566884" stroke="none" stroke-width="3" stroke-linecap="round" stroke-linejoin="round"/><path d="M155 420 L514 228 L401 456 Z" fill="#72839d" stroke="none" stroke-width="3" stroke-linecap="round" stroke-linejoin="round"/><g transform="translate(390 404) scale(1)"><rect x="-54" y="-12" width="108" height="39" rx="10" fill="#ece8dc"/><rect x="-48" y="-41" width="96" height="26" rx="3" fill="#4d7793"/><path d="M-24 -41 L-24 -15 M0 -41 L0 -15 M24 -41 L24 -15" fill="none" stroke="#bddfe2" stroke-width="2" stroke-linecap="round" stroke-linejoin="round"/><circle cx="-37" cy="29" r="17" fill="#364761"/><circle cx="37" cy="29" r="17" fill="#364761"/><circle cx="45" cy="4" r="7" fill="#697482"/></g><g transform="translate(183 365) scale(0.9)"><rect x="-25" y="-18" width="50" height="57" rx="10" fill="#eb995a"/><rect x="-24" y="30" width="18" height="33" rx="10" fill="#eb995a"/><rect x="6" y="30" width="18" height="33" rx="10" fill="#eb995a"/><circle cx="0" cy="-51" r="34" fill="#604238"/><circle cx="0" cy="-45" r="27" fill="#b97652"/><path d="M-26 -55 Q-11 -87 28 -53 Q6 -58 0 -68 Q-12 -56 -26 -55" fill="#49332e" stroke="none" stroke-width="3" stroke-linecap="round" stroke-linejoin="round"/><circle cx="-11" cy="-46" r="3" fill="#263842"/><circle cx="11" cy="-46" r="3" fill="#263842"/><path d="M-6 -34 Q0 -29 6 -34" fill="none" stroke="#263842" stroke-width="2" stroke-linecap="round" stroke-linejoin="round"/><circle cy="-48" r="42" fill="#d5f3ff" fill-opacity=".22" stroke="#f4f1e7" stroke-width="8"/><path d="M-25 -7 L-44 18 M25 -7 L43 16" fill="none" stroke="#b97652" stroke-width="11" stroke-linecap="round" stroke-linejoin="round"/></g><g transform="translate(285 402) scale(0.95)"><rect x="-26" y="-27" width="52" height="50" rx="18" fill="#77b8d2"/><rect x="-20" y="-19" width="40" height="23" rx="10" fill="#2b4b68"/><circle cx="-9" cy="-8" r="4" fill="#fff9c6"/><circle cx="9" cy="-8" r="4" fill="#fff9c6"/><path d="M0 -27 L0 -42" fill="none" stroke="#53748e" stroke-width="4" stroke-linecap="round" stroke-linejoin="round"/><circle cx="0" cy="-45" r="6" fill="#efc65e"/><circle cx="-16" cy="25" r="10" fill="#344d64"/><circle cx="16" cy="25" r="10" fill="#344d64"/></g><text x="32" y="40" fill="#b8c9de" font-family="sans-serif" font-size="12" letter-spacing="3">BRIGHT READS · 06</text></svg>